<svg width="508" height="508" viewBox="0 0 508 508" fill="none" xmlns="http://www.w3.org/2000/svg">
<g filter="url(#filter0_d_1_18)">
<rect x="4" width="500" height="500" rx="76" fill="#A75E09"/>
</g>
<g filter="url(#filter1_dddddddd_1_18)">
<path d="M395 300C395 293.546 392.436 287.357 387.873 282.794C383.31 278.231 377.12 275.667 370.667 275.667H335.557L225.378 386.349L225.212 386.512C224.492 387.2 223.686 387.744 222.829 388.147C221.795 389.13 220.736 390.081 219.654 391H370.667C377.12 391 383.31 388.436 387.873 383.873C392.436 379.31 395 373.12 395 366.667V300ZM170.833 324.333L171.065 324.336C175.929 324.46 179.833 328.441 179.833 333.333C179.833 338.226 175.929 342.207 171.065 342.331L170.833 342.333H170.667C165.696 342.333 161.667 338.304 161.667 333.333C161.667 328.363 165.696 324.334 170.667 324.333H170.833ZM246.328 334.273C246.303 336.221 246.202 338.161 246.03 340.088L358.055 227.551L358.097 227.509L358.37 227.234C361.176 224.382 363.404 221.012 364.93 217.311C366.505 213.49 367.301 209.393 367.27 205.26C367.238 201.128 366.381 197.043 364.748 193.246C363.166 189.568 360.887 186.233 358.038 183.423L357.761 183.153L357.636 183.031L326.036 151.431L326.01 151.404C323.133 148.503 319.71 146.2 315.939 144.626C312.168 143.052 308.123 142.24 304.037 142.235C299.95 142.23 295.904 143.033 292.129 144.598C288.472 146.114 285.14 148.316 282.313 151.083L282.042 151.353L246.333 187.061V333.333L246.328 334.273ZM228.333 133.333C228.333 126.88 225.769 120.69 221.206 116.127C216.785 111.706 210.839 109.162 204.604 109.007L204 109H137.333C130.88 109 124.69 111.564 120.127 116.127C115.564 120.69 113 126.88 113 133.333V333.333C113 348.628 119.076 363.295 129.89 374.11C140.705 384.924 155.372 391 170.667 391C185.961 391 200.629 384.924 211.443 374.11C222.089 363.464 228.143 349.085 228.329 334.05L228.333 333.333V133.333ZM246.333 161.605L269.292 138.647L269.722 138.221C274.19 133.847 279.456 130.366 285.236 127.97C291.202 125.497 297.599 124.227 304.058 124.235C310.516 124.242 316.91 125.527 322.871 128.014C328.82 130.497 334.221 134.129 338.764 138.703H338.764L370.315 170.254C374.988 174.768 378.716 180.166 381.283 186.134C383.864 192.135 385.22 198.592 385.269 205.124C385.318 211.656 384.061 218.133 381.571 224.172C379.089 230.193 375.431 235.658 370.812 240.249L370.812 240.25L353.475 257.667H370.667C381.894 257.667 392.662 262.127 400.601 270.066C408.54 278.005 413 288.773 413 300V366.667C413 377.894 408.54 388.662 400.601 396.601C392.662 404.54 381.894 409 370.667 409H170.667C150.599 409 131.352 401.028 117.162 386.838C102.972 372.648 95 353.401 95 333.333V133.333C95 122.106 99.4599 111.338 107.399 103.399C115.338 95.4599 126.106 91 137.333 91H204L204.526 91.0034C215.563 91.1404 226.119 95.584 233.934 103.399C241.873 111.338 246.333 122.106 246.333 133.333V161.605Z" fill="#E1CFB2"/>
</g>
<g filter="url(#filter2_dddddddd_1_18)">
<path d="M395 300C395 293.546 392.436 287.357 387.873 282.794C383.31 278.231 377.12 275.667 370.667 275.667H335.557L225.378 386.349L225.212 386.512C224.492 387.2 223.686 387.744 222.829 388.147C221.795 389.13 220.736 390.081 219.654 391H370.667C377.12 391 383.31 388.436 387.873 383.873C392.436 379.31 395 373.12 395 366.667V300ZM170.833 324.333L171.065 324.336C175.929 324.46 179.833 328.441 179.833 333.333C179.833 338.226 175.929 342.207 171.065 342.331L170.833 342.333H170.667C165.696 342.333 161.667 338.304 161.667 333.333C161.667 328.363 165.696 324.334 170.667 324.333H170.833ZM246.328 334.273C246.303 336.221 246.202 338.161 246.03 340.088L358.055 227.551L358.097 227.509L358.37 227.234C361.176 224.382 363.404 221.012 364.93 217.311C366.505 213.49 367.301 209.393 367.27 205.26C367.238 201.128 366.381 197.043 364.748 193.246C363.166 189.568 360.887 186.233 358.038 183.423L357.761 183.153L357.636 183.031L326.036 151.431L326.01 151.404C323.133 148.503 319.71 146.2 315.939 144.626C312.168 143.052 308.123 142.24 304.037 142.235C299.95 142.23 295.904 143.033 292.129 144.598C288.472 146.114 285.14 148.316 282.313 151.083L282.042 151.353L246.333 187.061V333.333L246.328 334.273ZM228.333 133.333C228.333 126.88 225.769 120.69 221.206 116.127C216.785 111.706 210.839 109.162 204.604 109.007L204 109H137.333C130.88 109 124.69 111.564 120.127 116.127C115.564 120.69 113 126.88 113 133.333V333.333C113 348.628 119.076 363.295 129.89 374.11C140.705 384.924 155.372 391 170.667 391C185.961 391 200.629 384.924 211.443 374.11C222.089 363.464 228.143 349.085 228.329 334.05L228.333 333.333V133.333ZM246.333 161.605L269.292 138.647L269.722 138.221C274.19 133.847 279.456 130.366 285.236 127.97C291.202 125.497 297.599 124.227 304.058 124.235C310.516 124.242 316.91 125.527 322.871 128.014C328.82 130.497 334.221 134.129 338.764 138.703H338.764L370.315 170.254C374.988 174.768 378.716 180.166 381.283 186.134C383.864 192.135 385.22 198.592 385.269 205.124C385.318 211.656 384.061 218.133 381.571 224.172C379.089 230.193 375.431 235.658 370.812 240.249L370.812 240.25L353.475 257.667H370.667C381.894 257.667 392.662 262.127 400.601 270.066C408.54 278.005 413 288.773 413 300V366.667C413 377.894 408.54 388.662 400.601 396.601C392.662 404.54 381.894 409 370.667 409H170.667C150.599 409 131.352 401.028 117.162 386.838C102.972 372.648 95 353.401 95 333.333V133.333C95 122.106 99.4599 111.338 107.399 103.399C115.338 95.4599 126.106 91 137.333 91H204L204.526 91.0034C215.563 91.1404 226.119 95.584 233.934 103.399C241.873 111.338 246.333 122.106 246.333 133.333V161.605Z" fill="#E1CFB2"/>
</g>
<path d="M395 300C395 293.546 392.436 287.357 387.873 282.794C383.31 278.231 377.12 275.667 370.667 275.667H335.557L225.378 386.349L225.212 386.512C224.492 387.2 223.686 387.744 222.829 388.147C221.795 389.13 220.736 390.081 219.654 391H370.667C377.12 391 383.31 388.436 387.873 383.873C392.436 379.31 395 373.12 395 366.667V300ZM170.833 324.333L171.065 324.336C175.929 324.46 179.833 328.441 179.833 333.333C179.833 338.226 175.929 342.207 171.065 342.331L170.833 342.333H170.667C165.696 342.333 161.667 338.304 161.667 333.333C161.667 328.363 165.696 324.334 170.667 324.333H170.833ZM246.328 334.273C246.303 336.221 246.202 338.161 246.03 340.088L358.055 227.551L358.097 227.509L358.37 227.234C361.176 224.382 363.404 221.012 364.93 217.311C366.505 213.49 367.301 209.393 367.27 205.26C367.238 201.128 366.381 197.043 364.748 193.246C363.166 189.568 360.887 186.233 358.038 183.423L357.761 183.153L357.636 183.031L326.036 151.431L326.01 151.404C323.133 148.503 319.71 146.2 315.939 144.626C312.168 143.052 308.123 142.24 304.037 142.235C299.95 142.23 295.904 143.033 292.129 144.598C288.472 146.114 285.14 148.316 282.313 151.083L282.042 151.353L246.333 187.061V333.333L246.328 334.273ZM228.333 133.333C228.333 126.88 225.769 120.69 221.206 116.127C216.785 111.706 210.839 109.162 204.604 109.007L204 109H137.333C130.88 109 124.69 111.564 120.127 116.127C115.564 120.69 113 126.88 113 133.333V333.333C113 348.628 119.076 363.295 129.89 374.11C140.705 384.924 155.372 391 170.667 391C185.961 391 200.629 384.924 211.443 374.11C222.089 363.464 228.143 349.085 228.329 334.05L228.333 333.333V133.333ZM246.333 161.605L269.292 138.647L269.722 138.221C274.19 133.847 279.456 130.366 285.236 127.97C291.202 125.497 297.599 124.227 304.058 124.235C310.516 124.242 316.91 125.527 322.871 128.014C328.82 130.497 334.221 134.129 338.764 138.703H338.764L370.315 170.254C374.988 174.768 378.716 180.166 381.283 186.134C383.864 192.135 385.22 198.592 385.269 205.124C385.318 211.656 384.061 218.133 381.571 224.172C379.089 230.193 375.431 235.658 370.812 240.249L370.812 240.25L353.475 257.667H370.667C381.894 257.667 392.662 262.127 400.601 270.066C408.54 278.005 413 288.773 413 300V366.667C413 377.894 408.54 388.662 400.601 396.601C392.662 404.54 381.894 409 370.667 409H170.667C150.599 409 131.352 401.028 117.162 386.838C102.972 372.648 95 353.401 95 333.333V133.333C95 122.106 99.4599 111.338 107.399 103.399C115.338 95.4599 126.106 91 137.333 91H204L204.526 91.0034C215.563 91.1404 226.119 95.584 233.934 103.399C241.873 111.338 246.333 122.106 246.333 133.333V161.605Z" fill="#E1CFB2"/>
<defs>
<filter id="filter0_d_1_18" x="0" y="0" width="508" height="508" filterUnits="userSpaceOnUse" color-interpolation-filters="sRGB">
<feFlood flood-opacity="0" result="BackgroundImageFix"/>
<feColorMatrix in="SourceAlpha" type="matrix" values="0 0 0 0 0 0 0 0 0 0 0 0 0 0 0 0 0 0 127 0" result="hardAlpha"/>
<feOffset dy="4"/>
<feGaussianBlur stdDeviation="2"/>
<feComposite in2="hardAlpha" operator="out"/>
<feColorMatrix type="matrix" values="0 0 0 0 0 0 0 0 0 0 0 0 0 0 0 0 0 0 0.25 0"/>
<feBlend mode="normal" in2="BackgroundImageFix" result="effect1_dropShadow_1_18"/>
<feBlend mode="normal" in="SourceGraphic" in2="effect1_dropShadow_1_18" result="shape"/>
</filter>
<filter id="filter1_dddddddd_1_18" x="63" y="59" width="382" height="382" filterUnits="userSpaceOnUse" color-interpolation-filters="sRGB">
<feFlood flood-opacity="0" result="BackgroundImageFix"/>
<feColorMatrix in="SourceAlpha" type="matrix" values="0 0 0 0 0 0 0 0 0 0 0 0 0 0 0 0 0 0 127 0" result="hardAlpha"/>
<feOffset/>
<feGaussianBlur stdDeviation="16"/>
<feComposite in2="hardAlpha" operator="out"/>
<feColorMatrix type="matrix" values="0 0 0 0 1 0 0 0 0 0.501961 0 0 0 0 0.819608 0 0 0 1 0"/>
<feBlend mode="normal" in2="BackgroundImageFix" result="effect1_dropShadow_1_18"/>
<feColorMatrix in="SourceAlpha" type="matrix" values="0 0 0 0 0 0 0 0 0 0 0 0 0 0 0 0 0 0 127 0" result="hardAlpha"/>
<feOffset/>
<feGaussianBlur stdDeviation="16"/>
<feComposite in2="hardAlpha" operator="out"/>
<feColorMatrix type="matrix" values="0 0 0 0 1 0 0 0 0 0.501961 0 0 0 0 0.819608 0 0 0 1 0"/>
<feBlend mode="normal" in2="effect1_dropShadow_1_18" result="effect2_dropShadow_1_18"/>
<feColorMatrix in="SourceAlpha" type="matrix" values="0 0 0 0 0 0 0 0 0 0 0 0 0 0 0 0 0 0 127 0" result="hardAlpha"/>
<feOffset/>
<feGaussianBlur stdDeviation="16"/>
<feComposite in2="hardAlpha" operator="out"/>
<feColorMatrix type="matrix" values="0 0 0 0 1 0 0 0 0 0.501961 0 0 0 0 0.819608 0 0 0 1 0"/>
<feBlend mode="normal" in2="effect2_dropShadow_1_18" result="effect3_dropShadow_1_18"/>
<feColorMatrix in="SourceAlpha" type="matrix" values="0 0 0 0 0 0 0 0 0 0 0 0 0 0 0 0 0 0 127 0" result="hardAlpha"/>
<feOffset/>
<feGaussianBlur stdDeviation="16"/>
<feComposite in2="hardAlpha" operator="out"/>
<feColorMatrix type="matrix" values="0 0 0 0 1 0 0 0 0 0.501961 0 0 0 0 0.819608 0 0 0 1 0"/>
<feBlend mode="normal" in2="effect3_dropShadow_1_18" result="effect4_dropShadow_1_18"/>
<feColorMatrix in="SourceAlpha" type="matrix" values="0 0 0 0 0 0 0 0 0 0 0 0 0 0 0 0 0 0 127 0" result="hardAlpha"/>
<feOffset/>
<feGaussianBlur stdDeviation="16"/>
<feComposite in2="hardAlpha" operator="out"/>
<feColorMatrix type="matrix" values="0 0 0 0 1 0 0 0 0 0.501961 0 0 0 0 0.819608 0 0 0 1 0"/>
<feBlend mode="normal" in2="effect4_dropShadow_1_18" result="effect5_dropShadow_1_18"/>
<feColorMatrix in="SourceAlpha" type="matrix" values="0 0 0 0 0 0 0 0 0 0 0 0 0 0 0 0 0 0 127 0" result="hardAlpha"/>
<feOffset/>
<feGaussianBlur stdDeviation="16"/>
<feComposite in2="hardAlpha" operator="out"/>
<feColorMatrix type="matrix" values="0 0 0 0 1 0 0 0 0 0.501961 0 0 0 0 0.819608 0 0 0 1 0"/>
<feBlend mode="normal" in2="effect5_dropShadow_1_18" result="effect6_dropShadow_1_18"/>
<feColorMatrix in="SourceAlpha" type="matrix" values="0 0 0 0 0 0 0 0 0 0 0 0 0 0 0 0 0 0 127 0" result="hardAlpha"/>
<feOffset/>
<feGaussianBlur stdDeviation="16"/>
<feComposite in2="hardAlpha" operator="out"/>
<feColorMatrix type="matrix" values="0 0 0 0 1 0 0 0 0 0.501961 0 0 0 0 0.819608 0 0 0 1 0"/>
<feBlend mode="normal" in2="effect6_dropShadow_1_18" result="effect7_dropShadow_1_18"/>
<feColorMatrix in="SourceAlpha" type="matrix" values="0 0 0 0 0 0 0 0 0 0 0 0 0 0 0 0 0 0 127 0" result="hardAlpha"/>
<feOffset/>
<feGaussianBlur stdDeviation="16"/>
<feComposite in2="hardAlpha" operator="out"/>
<feColorMatrix type="matrix" values="0 0 0 0 1 0 0 0 0 0.501961 0 0 0 0 0.819608 0 0 0 1 0"/>
<feBlend mode="normal" in2="effect7_dropShadow_1_18" result="effect8_dropShadow_1_18"/>
<feBlend mode="normal" in="SourceGraphic" in2="effect8_dropShadow_1_18" result="shape"/>
</filter>
<filter id="filter2_dddddddd_1_18" x="86.5" y="82.5" width="335" height="335" filterUnits="userSpaceOnUse" color-interpolation-filters="sRGB">
<feFlood flood-opacity="0" result="BackgroundImageFix"/>
<feColorMatrix in="SourceAlpha" type="matrix" values="0 0 0 0 0 0 0 0 0 0 0 0 0 0 0 0 0 0 127 0" result="hardAlpha"/>
<feOffset/>
<feGaussianBlur stdDeviation="4.25"/>
<feComposite in2="hardAlpha" operator="out"/>
<feColorMatrix type="matrix" values="0 0 0 0 1 0 0 0 0 0.4 0 0 0 0 0.768627 0 0 0 1 0"/>
<feBlend mode="normal" in2="BackgroundImageFix" result="effect1_dropShadow_1_18"/>
<feColorMatrix in="SourceAlpha" type="matrix" values="0 0 0 0 0 0 0 0 0 0 0 0 0 0 0 0 0 0 127 0" result="hardAlpha"/>
<feOffset/>
<feGaussianBlur stdDeviation="4.25"/>
<feComposite in2="hardAlpha" operator="out"/>
<feColorMatrix type="matrix" values="0 0 0 0 1 0 0 0 0 0.4 0 0 0 0 0.768627 0 0 0 1 0"/>
<feBlend mode="normal" in2="effect1_dropShadow_1_18" result="effect2_dropShadow_1_18"/>
<feColorMatrix in="SourceAlpha" type="matrix" values="0 0 0 0 0 0 0 0 0 0 0 0 0 0 0 0 0 0 127 0" result="hardAlpha"/>
<feOffset/>
<feGaussianBlur stdDeviation="4.25"/>
<feComposite in2="hardAlpha" operator="out"/>
<feColorMatrix type="matrix" values="0 0 0 0 1 0 0 0 0 0.4 0 0 0 0 0.768627 0 0 0 1 0"/>
<feBlend mode="normal" in2="effect2_dropShadow_1_18" result="effect3_dropShadow_1_18"/>
<feColorMatrix in="SourceAlpha" type="matrix" values="0 0 0 0 0 0 0 0 0 0 0 0 0 0 0 0 0 0 127 0" result="hardAlpha"/>
<feOffset/>
<feGaussianBlur stdDeviation="4.25"/>
<feComposite in2="hardAlpha" operator="out"/>
<feColorMatrix type="matrix" values="0 0 0 0 1 0 0 0 0 0.4 0 0 0 0 0.768627 0 0 0 1 0"/>
<feBlend mode="normal" in2="effect3_dropShadow_1_18" result="effect4_dropShadow_1_18"/>
<feColorMatrix in="SourceAlpha" type="matrix" values="0 0 0 0 0 0 0 0 0 0 0 0 0 0 0 0 0 0 127 0" result="hardAlpha"/>
<feOffset/>
<feGaussianBlur stdDeviation="4.25"/>
<feComposite in2="hardAlpha" operator="out"/>
<feColorMatrix type="matrix" values="0 0 0 0 1 0 0 0 0 0.4 0 0 0 0 0.768627 0 0 0 1 0"/>
<feBlend mode="normal" in2="effect4_dropShadow_1_18" result="effect5_dropShadow_1_18"/>
<feColorMatrix in="SourceAlpha" type="matrix" values="0 0 0 0 0 0 0 0 0 0 0 0 0 0 0 0 0 0 127 0" result="hardAlpha"/>
<feOffset/>
<feGaussianBlur stdDeviation="4.25"/>
<feComposite in2="hardAlpha" operator="out"/>
<feColorMatrix type="matrix" values="0 0 0 0 1 0 0 0 0 0.4 0 0 0 0 0.768627 0 0 0 1 0"/>
<feBlend mode="normal" in2="effect5_dropShadow_1_18" result="effect6_dropShadow_1_18"/>
<feColorMatrix in="SourceAlpha" type="matrix" values="0 0 0 0 0 0 0 0 0 0 0 0 0 0 0 0 0 0 127 0" result="hardAlpha"/>
<feOffset/>
<feGaussianBlur stdDeviation="4.25"/>
<feComposite in2="hardAlpha" operator="out"/>
<feColorMatrix type="matrix" values="0 0 0 0 1 0 0 0 0 0.4 0 0 0 0 0.768627 0 0 0 1 0"/>
<feBlend mode="normal" in2="effect6_dropShadow_1_18" result="effect7_dropShadow_1_18"/>
<feColorMatrix in="SourceAlpha" type="matrix" values="0 0 0 0 0 0 0 0 0 0 0 0 0 0 0 0 0 0 127 0" result="hardAlpha"/>
<feOffset/>
<feGaussianBlur stdDeviation="4.25"/>
<feComposite in2="hardAlpha" operator="out"/>
<feColorMatrix type="matrix" values="0 0 0 0 1 0 0 0 0 0.4 0 0 0 0 0.768627 0 0 0 1 0"/>
<feBlend mode="normal" in2="effect7_dropShadow_1_18" result="effect8_dropShadow_1_18"/>
<feBlend mode="normal" in="SourceGraphic" in2="effect8_dropShadow_1_18" result="shape"/>
</filter>
</defs>
</svg>
